PathFileType	4	(X/Y/Z)	 s01c0201.trc
DataRate	CameraRate	NumFrames	NumMarkers	Units	OrigDataRate	OrigDataStartFrame	OrigNumFrames
200	200	4	48	mm	200	751	2000
Frame#	Time	racr			lacr			c7			jug			rlel			rdr			llel			ldr			s2			lic			ric			lasi			rasi			rpsi			lpsi			rgt			lgt			rth1			rth2			rth3			rth4			rlfc			rsh1			rsh2			rsh3			rsh4			rlmal			rmmal			rcal			rtoe			rmt5			lth1			lth2			lth4			lth3			llfc			lsh1			lsh2			lsh3			lsh4			llmal			lmmal			lcal			ltoe			lmt5			SBIKE			LBIKE			RBIKE			
		X1	Y1	Z1	X2	Y2	Z2	X3	Y3	Z3	X4	Y4	Z4	X5	Y5	Z5	X6	Y6	Z6	X7	Y7	Z7	X8	Y8	Z8	X9	Y9	Z9	X10	Y10	Z10	X11	Y11	Z11	X12	Y12	Z12	X13	Y13	Z13	X14	Y14	Z14	X15	Y15	Z15	X16	Y16	Z16	X17	Y17	Z17	X18	Y18	Z18	X19	Y19	Z19	X20	Y20	Z20	X21	Y21	Z21	X22	Y22	Z22	X23	Y23	Z23	X24	Y24	Z24	X25	Y25	Z25	X26	Y26	Z26	X27	Y27	Z27	X28	Y28	Z28	X29	Y29	Z29	X30	Y30	Z30	X31	Y31	Z31	X32	Y32	Z32	X33	Y33	Z33	X34	Y34	Z34	X35	Y35	Z35	X36	Y36	Z36	X37	Y37	Z37	X38	Y38	Z38	X39	Y39	Z39	X40	Y40	Z40	X41	Y41	Z41	X42	Y42	Z42	X43	Y43	Z43	X44	Y44	Z44	X45	Y45	Z45	X46	Y46	Z46	X47	Y47	Z47	X48	Y48	Z48	
751	3.7550	501.435218	1257.226741	-53.967169	530.136172	1241.082903	-414.924969	490.909639	1359.802199	-237.818363	476.925347	1191.968204	-233.553986	463.709681	989.841757	56.881728	665.102140	882.728170	-46.846392	480.663164	994.279877	-563.970104	662.450577	887.538435	-442.714173	-34.483273	1145.872757	-265.963024	140.220689	1160.578087	-431.877060	103.370585	1160.904268	-98.974438	144.904734	1114.133417	-404.703073	139.742544	1116.572448	-123.391450	-9.788322	1187.378251	-214.851509	-7.704762	1190.052638	-319.107279	63.061944	1037.406794	-76.443467	100.570128	1038.103643	-455.936944	141.818379	925.350417	-53.070534	194.614123	861.476049	-56.330430	247.276259	788.534746	-65.405665	240.057236	894.360277	-64.996671	296.127444	683.267561	-82.780404	265.448888	569.643404	-51.694761	259.360441	485.116234	-57.858105	244.909845	398.150238	-70.046403	309.419921	481.534335	-91.926825	214.963714	277.842205	-93.731241	265.843514	293.219859	-165.721833	174.772173	257.926959	-146.913989	437.448923	195.345237	-129.246748	328.745221	177.447063	-61.674990	198.785850	970.654523	-451.422456	287.203223	958.532720	-453.652759	296.148874	1011.032838	-441.981283	369.219274	936.587370	-437.309543	456.821944	865.592107	-405.402711	363.956157	807.396413	-438.725650	299.481516	750.489996	-430.689378	233.325873	697.185092	-417.221052	336.560612	713.492022	-397.686004	137.217891	618.578760	-402.937877	164.112014	609.825361	-319.956868	78.514622	627.219663	-357.582382	260.177604	415.789106	-371.660664	171.587490	478.615133	-434.721824	-223.033892	893.802172	-249.767931	-12.087803	84.536586	-453.763750	-20.275429	80.743627	-53.760604	
752	3.7600	503.191509	1258.208932	-56.399087	529.234187	1242.678627	-417.474789	490.985330	1360.944534	-240.245724	477.496065	1193.211472	-236.218913	465.000776	991.507184	56.104901	665.355497	883.038696	-47.104473	479.493285	995.052369	-564.331978	662.018495	888.183538	-442.978808	-34.456749	1146.335615	-263.864782	139.014930	1162.482511	-431.309256	105.384658	1161.174526	-98.380382	144.373026	1115.467575	-404.109009	140.522828	1116.502596	-122.924136	-9.571369	1187.746478	-212.601544	-7.931998	1190.558449	-316.953629	63.042720	1036.868462	-75.456014	99.574801	1040.683630	-455.409564	138.956347	924.173753	-51.928138	190.374711	859.102521	-54.985218	241.556842	785.020999	-63.418992	236.835164	891.229227	-63.575123	289.147045	679.206276	-81.209675	257.974761	565.759152	-50.364285	251.804337	481.247398	-56.622592	237.293699	394.310511	-68.953680	302.068766	477.563419	-90.296805	207.778567	273.895945	-93.140143	258.210673	289.001885	-164.465582	167.702661	255.478994	-146.113384	429.163728	187.622017	-129.586741	320.298844	171.746563	-61.543061	198.793621	974.418042	-450.799255	287.384586	964.317770	-453.443627	295.345304	1016.897285	-441.611442	369.924356	944.210243	-437.530316	459.329252	876.089513	-406.058070	368.114610	817.615221	-439.236985	304.224409	759.394851	-430.410795	238.942132	705.222182	-417.244751	341.636106	723.010536	-398.085316	143.724974	624.350696	-402.666509	170.766002	616.337596	-319.617039	84.780840	632.150036	-357.251678	269.561240	423.283760	-370.993885	179.969213	484.811305	-434.301527	-223.067354	893.845502	-249.597206	-12.091253	84.579507	-453.761004	-20.275770	80.742765	-53.764812	
753	3.7650	504.915441	1259.302640	-58.887201	528.449151	1244.225213	-419.972300	491.120252	1361.976550	-242.657434	478.069896	1194.346888	-238.659509	466.335944	993.113564	55.076663	665.650458	883.380857	-47.519858	478.297363	995.648477	-564.601653	661.617340	888.890912	-443.195224	-34.463640	1146.936276	-261.687901	137.739330	1164.385773	-430.710960	107.327197	1161.508928	-98.039395	143.768556	1116.845446	-403.496337	141.326290	1116.588744	-122.454920	-9.562715	1188.397086	-210.160876	-8.162382	1191.215492	-314.735481	63.044458	1036.417834	-74.352870	98.608111	1043.159400	-454.840559	136.245756	923.263723	-50.850817	186.465518	857.205833	-53.501419	236.222415	782.260731	-62.015492	233.251588	888.493073	-61.941011	282.455675	675.876573	-79.531250	250.836842	562.410244	-49.033545	244.424790	477.906729	-55.448118	229.841775	391.037344	-67.886476	295.007784	474.126403	-88.739154	200.567561	271.189926	-92.609604	250.312794	285.475595	-163.164394	160.585446	253.748042	-145.467363	420.474472	180.348212	-129.893384	311.627509	166.597735	-61.449005	198.712377	978.203722	-450.148852	287.427911	969.954416	-453.199866	294.376374	1022.588386	-441.752977	371.087899	951.510190	-436.916548	461.812808	886.295015	-406.373025	371.944265	826.861953	-438.689761	308.762426	767.976605	-430.178425	244.316631	712.854522	-417.069241	346.827488	731.866235	-398.470779	150.194079	629.437526	-402.409325	177.503292	622.283883	-319.273688	91.238375	636.314381	-356.931106	279.422573	430.721997	-370.746263	188.904927	490.676195	-434.019601	-223.181134	893.940632	-249.578491	-12.089371	84.547530	-453.836011	-20.273741	80.762784	-53.746545	
754	3.7700	506.637775	1260.303610	-61.419626	527.717014	1245.645237	-422.375578	491.305033	1362.917496	-245.101502	478.627285	1195.307821	-241.295448	467.684874	994.707575	53.912816	665.900824	883.693146	-47.982290	476.998738	996.317265	-564.922134	661.216420	889.524792	-443.242279	-34.494757	1147.724709	-259.529240	136.458672	1166.343256	-430.090357	109.314748	1161.729752	-97.464824	143.096678	1118.253398	-402.865315	142.166116	1116.672978	-122.060686	-8.856295	1188.731870	-208.202016	-8.393299	1192.022647	-312.480640	63.109626	1036.341552	-73.362644	97.534175	1045.649491	-454.212994	133.727523	922.820593	-49.635511	182.683125	855.943569	-52.084286	231.194233	780.031786	-60.422302	229.423727	886.259441	-60.856307	276.082815	673.098138	-77.876620	243.824209	559.657859	-47.726549	237.248686	475.220508	-54.201956	222.497695	388.383764	-66.890984	288.141200	471.395637	-87.102184	193.340459	268.767403	-92.252770	242.250757	282.645843	-161.861955	153.309737	252.887630	-144.698400	411.556874	173.484010	-130.263637	302.615638	162.073998	-61.461809	198.495436	981.967486	-449.539149	287.338874	975.394559	-452.888077	293.311680	1028.356020	-441.793836	370.915236	958.857725	-437.703987	464.258890	896.554897	-406.587340	375.151425	836.281554	-438.484824	312.951547	776.375966	-430.019866	249.471460	720.084217	-416.969637	351.771617	740.367834	-398.988854	156.618185	633.797355	-402.174028	184.211946	627.357736	-319.045466	97.820325	639.670424	-356.634911	289.937808	437.910450	-370.684254	197.814707	495.974971	-433.803409	-223.279783	893.939227	-249.526287	-12.096051	84.596799	-453.803154	-20.291936	80.780562	-53.733474	
